<svg width="26" height="26" viewBox="0 0 26 26" fill="none" xmlns="http://www.w3.org/2000/svg">
<path d="M7.09091 10.0959C7.09091 11.6283 8.12043 13.1089 8.27575 13.3323L8.27845 13.3362C8.28798 13.3499 8.30505 13.3762 8.32945 13.4139C8.67778 13.952 10.5196 16.7967 13.2452 18.0655C13.9388 18.389 14.4813 18.5811 14.9023 18.7249C15.5997 18.9631 16.2327 18.9293 16.734 18.8502C17.2933 18.7588 18.4547 18.0912 18.6974 17.36C18.9392 16.6277 18.9392 16.0012 18.8673 15.8708C18.8084 15.7666 18.6726 15.6958 18.4723 15.5914C18.4219 15.5652 18.3674 15.5368 18.309 15.5052C18.0187 15.3481 16.5884 14.5901 16.3214 14.4864C16.0562 14.3817 15.8611 14.3293 15.6679 14.6425C15.4737 14.9558 14.9173 15.6613 14.7473 15.8708C14.5784 16.0793 14.4084 16.106 14.1181 15.9499C14.0705 15.9242 14.0057 15.8939 13.9257 15.8565C13.5159 15.6648 12.7079 15.2868 11.7785 14.395C10.9149 13.5642 10.3314 12.5382 10.1624 12.2249C9.99253 11.9107 10.1438 11.7422 10.2894 11.5861C10.3796 11.4891 10.4839 11.352 10.5875 11.2159C10.6341 11.1547 10.6805 11.0937 10.7254 11.0367C10.8496 10.8808 10.9032 10.7623 10.9758 10.6016C10.9884 10.5738 11.0016 10.5447 11.0158 10.5139C11.1119 10.3055 11.0643 10.1216 10.9924 9.96551C10.9431 9.85978 10.6604 9.11856 10.4076 8.45589C10.2873 8.14035 10.1735 7.84204 10.0952 7.63933C9.88743 7.10323 9.67588 7.10323 9.50706 7.10323C9.48372 7.10323 9.46225 7.10323 9.44077 7.10221C9.27179 7.09296 9.0776 7.09091 8.88435 7.09091C8.69016 7.09091 8.37461 7.16896 8.10853 7.48323C8.09143 7.50336 8.07233 7.52532 8.05155 7.54922C7.74889 7.8972 7.09091 8.65373 7.09091 10.0959Z" fill="#3E3232"/>
<path fill-rule="evenodd" clip-rule="evenodd" d="M0.267812 25.018C0.148456 25.4557 0.546321 25.859 0.985555 25.7457L6.5742 24.3034C8.46947 25.3832 10.6627 26 13 26C20.1797 26 26 20.1797 26 13C26 5.8203 20.1797 0 13 0C5.8203 0 0 5.8203 0 13C0 15.3841 0.64178 17.6183 1.762 19.5393L0.267812 25.018ZM2.68128 23.3552L3.79494 19.2718L3.39546 18.5868C2.43928 16.9471 1.89091 15.0405 1.89091 13C1.89091 6.86462 6.86462 1.89091 13 1.89091C19.1354 1.89091 24.1091 6.86462 24.1091 13C24.1091 19.1354 19.1354 24.1091 13 24.1091C10.9995 24.1091 9.12782 23.582 7.51023 22.6604L6.84407 22.2809L2.68128 23.3552Z" fill="#3E3232"/>
</svg>
