<?xml version="1.0" encoding="utf-8"?>
<!-- Generator: Adobe Illustrator 27.5.0, SVG Export Plug-In . SVG Version: 6.00 Build 0)  -->
<svg version="1.1" id="Layer_1" xmlns="http://www.w3.org/2000/svg" xmlns:xlink="http://www.w3.org/1999/xlink" x="0px" y="0px"
	 viewBox="0 0 509.7 154.4" style="enable-background:new 0 0 509.7 154.4;" xml:space="preserve">
<style type="text/css">
	.st0{fill:#14B2AA;}
	.st1{fill:#12163D;}
	.st2{fill:#D171C5;}
	.st3{fill:#FFFFFE;}
	.st4{fill:#1E1E1E;}
</style>
<g>
	<path class="st0" d="M56.4,132.4h-2.3c-6.7,0-11.6-1.6-14.8-5c-3.1-3.3-4.8-7.9-4.8-13.8V89.9c0-2.7-0.6-4.5-1.6-5.5
		c-1.1-1-3.1-1.4-5.9-1.4h-5V71.5h5c2.9,0,4.8-0.5,5.9-1.4c1.1-1,1.6-2.8,1.6-5.5V40.7c0-5.9,1.6-10.4,4.8-13.8
		c3.1-3.3,8.1-5,14.8-5h2.3v10.8h-2.8c-3.1,0-5.3,0.6-6.5,1.8c-1.3,1.2-2,3.5-2,6.9v23.3c0,4.5-1,7.6-3,9.4c-2,1.8-4.7,2.6-8.1,2.6
		v0.8c3.3,0,6,0.9,8.1,2.6c2,1.8,3,4.9,3,9.4v23.3c0,3.3,0.6,5.5,2,6.8s3.5,1.9,6.5,1.9h2.8V132.4z"/>
	<path class="st1" d="M142.3,67.3c-2.1-4.4-5.2-7.9-9.4-10.5c-4.2-2.6-9.5-3.8-15.9-3.8c-5.9,0-10.8,1.1-14.8,3.2
		c-4,2.1-7,5-9.3,8.4c-2.3,3.5-3.7,7.1-4.5,11.1h-1V30.3H71.2v93.7h16.2v-34c0-4.7,0.7-8.7,2.1-12c1.4-3.3,3.7-5.9,6.9-7.7
		c3.1-1.8,7.4-2.6,12.7-2.6c7.1,0,12.2,1.4,15.4,4.3c3.1,2.9,4.8,7.7,4.8,14.4v37.6h16.2V82.4C145.5,76.8,144.5,71.8,142.3,67.3z"/>
	<path class="st1" d="M225.6,67c-2.3-4.3-5.9-7.7-10.6-10.2c-4.8-2.5-11-3.8-18.6-3.8c-7.4,0-13.7,1.3-19,3.7
		c-5.3,2.5-9.4,5.8-12.3,10c-2.9,4.2-4.3,9-4.3,14.4v0.6h16.2V81c0-4.8,1.5-8.4,4.5-10.5c3-2.1,7.6-3.2,13.8-3.2
		c6.5,0,11.1,1.1,13.8,3.3c2.6,2.2,4,6,4,11.5v3.8l-31.3,3.3c-4.7,0.4-8.7,1.4-12,2.9c-3.3,1.4-5.9,3.4-7.7,5.9s-2.7,5.5-2.7,9.1
		c0,5.8,2.1,10.3,6.4,13.5c4.3,3.2,10,4.8,17.2,4.8c7.9,0,14.5-1.6,19.7-4.9c5.2-3.3,8.7-7.8,10.5-13.6h1v17.1h15V82
		C229,76.2,227.9,71.3,225.6,67z M200.9,111.8c-3.8,1.3-8.4,1.9-13.6,1.9c-4,0-7-0.6-8.9-1.9c-1.9-1.3-2.9-3.1-2.9-5.7
		c0-2.5,0.9-4.3,2.6-5.5c1.8-1.1,4.5-1.9,8.1-2.3l26.7-2.9c-0.1,4.2-1.1,7.7-3.2,10.3C207.7,108.6,204.7,110.5,200.9,111.8z"/>
	<g>
		<rect x="245.6" y="54.4" class="st1" width="16.2" height="69.6"/>
	</g>
	<polygon class="st1" points="353.8,54.4 334.6,54.4 314.5,81.7 295.3,81.7 295.3,30.3 279.1,30.3 279.1,124.1 295.3,124.1 
		295.3,96.2 314.5,96.2 334.5,124.1 353.5,124.1 327.7,87.8 	"/>
	<path class="st1" d="M422.3,54.4v34.7c0,7.2-1.7,12.6-5.2,16.3s-8.9,5.5-16.5,5.5c-7.2,0-12.3-1.6-15.5-4.8
		c-3.1-3.1-4.7-7.9-4.7-14.2V54.4h-16.2v42.2c0,5.3,1.1,10.2,3.2,14.5c2.1,4.4,5.3,7.9,9.6,10.4c4.3,2.6,9.7,3.8,16.2,3.8
		c6,0,11.1-1.1,15.2-3.3c4.1-2.2,7.3-5,9.6-8.6c2.3-3.5,3.8-7.2,4.4-11.1h1v21.6h15V54.4H422.3z"/>
	<path class="st0" d="M482.8,71.5c-2.9,0-4.8-0.5-5.9-1.4c-1.1-1-1.6-2.8-1.6-5.5V40.7c0-5.9-1.6-10.4-4.8-13.8
		c-3.1-3.3-8.1-5-14.8-5h-2.3v10.8h2.8c3.1,0,5.3,0.6,6.6,1.8c1.3,1.2,2,3.5,2,6.9v23.3c0,4.5,1,7.6,3,9.4c2,1.8,4.7,2.6,8.1,2.6
		v0.8c-3.3,0-6,0.9-8.1,2.6c-2,1.8-3,4.9-3,9.4v23.3c0,3.3-0.6,5.5-2,6.8c-1.3,1.3-3.5,1.9-6.6,1.9h-2.8v10.8h2.3
		c6.7,0,11.6-1.6,14.8-5c3.1-3.3,4.8-7.9,4.8-13.8V89.8c0-2.7,0.6-4.5,1.6-5.5c1.1-1,3.1-1.4,5.9-1.4h5V71.4L482.8,71.5L482.8,71.5
		L482.8,71.5z"/>
	<rect x="245.6" y="30.3" class="st2" width="16.2" height="16.1"/>
</g>
</svg>
