<svg width="104" height="44" viewBox="0 0 104 44" fill="none" xmlns="http://www.w3.org/2000/svg">
<path d="M74.488 38.2114H76.6473L75.5219 41.5983H76.7809L77.857 38.0875V37.3302H75.7118V36.3734H74.4739L74.488 38.2114Z" fill="black"/>
<path d="M79.121 41.3918L78.4177 37.3302H79.5923L79.8921 39.3636C79.9398 39.3466 79.9876 39.3274 80.0354 39.3059C80.2089 39.2233 80.3167 39.1132 80.3589 38.9755C80.3871 38.8837 80.4082 38.7483 80.4222 38.5693C80.4363 38.3858 80.4504 38.1632 80.4644 37.9016L80.4926 37.3302H81.6672C81.625 37.8947 81.5851 38.3261 81.5476 38.6244C81.5101 38.9181 81.4561 39.1407 81.3858 39.2921C81.2827 39.517 81.067 39.7006 80.7387 39.8429C80.5117 39.9413 80.2633 40.0111 79.9936 40.0525L80.0917 40.7171H80.6332C81.0693 40.7171 81.4069 40.6506 81.6461 40.5175C81.8899 40.3798 82.0587 40.1962 82.1525 39.9668C82.2462 39.7373 82.3095 39.4344 82.3424 39.0581L82.4971 37.3302H83.6787L83.531 38.9755C83.4841 39.54 83.3622 40.015 83.1653 40.4005C82.9684 40.7814 82.6683 41.0774 82.265 41.2885C81.8617 41.495 81.3366 41.5983 80.6895 41.5983H79.4235L79.121 41.3918Z" fill="black"/>
<path d="M88.7906 41.5983V38.7483C88.7906 38.2664 88.6733 37.9108 88.4389 37.6813C88.2091 37.4472 87.8574 37.3302 87.3839 37.3302H85.8083V38.2114H87.0392C87.2455 38.2114 87.3885 38.2573 87.4683 38.349C87.548 38.4362 87.5878 38.5854 87.5878 38.7965V41.5983H88.7906Z" fill="black"/>
<path d="M90.1521 41.6534C90.0583 41.6534 89.9481 41.6465 89.8215 41.6327C89.6949 41.6235 89.5871 41.6075 89.498 41.5845V40.7102C89.7418 40.7378 89.8942 40.747 89.9551 40.7378C90.0724 40.7286 90.1544 40.6896 90.2013 40.6208C90.2482 40.5473 90.2716 40.4464 90.2716 40.3179V39.5262C90.2716 39.1132 90.3326 38.769 90.4545 38.4936C90.4988 38.392 90.5576 38.2979 90.6309 38.2114H89.7441V37.3302H92.5927C93.0663 37.3302 93.4203 37.4472 93.6548 37.6813C93.8892 37.9108 94.0064 38.2664 94.0064 38.7483V41.5983H92.7967V38.7965C92.7967 38.5854 92.7568 38.4362 92.6771 38.349C92.5974 38.2573 92.4544 38.2114 92.2481 38.2114H91.6738C91.608 38.2615 91.558 38.328 91.5236 38.411C91.458 38.5808 91.4251 38.8034 91.4251 39.0787V40.3041C91.4251 40.786 91.3243 41.1325 91.1227 41.3436C90.9211 41.5501 90.5975 41.6534 90.1521 41.6534Z" fill="black"/>
<path d="M96.3862 39.6327C96.8447 40.2605 97.2992 40.9157 97.7497 41.5983H99.0087V41.4193C98.8774 41.2357 98.7039 40.9925 98.4883 40.6896C98.2233 40.3183 97.979 39.9789 97.7553 39.6714C97.7813 39.6627 97.8076 39.6533 97.8341 39.6432C98.0076 39.579 98.1624 39.4964 98.2984 39.3954C98.4343 39.2944 98.5258 39.1912 98.5727 39.0856C98.6242 38.9663 98.6711 38.7919 98.7133 38.5624C98.7555 38.333 98.8024 38.0209 98.854 37.6262L98.8962 37.3302H97.6935L97.6513 37.936C97.6231 38.3536 97.5927 38.6175 97.5598 38.7277C97.5411 38.7873 97.5012 38.8516 97.4403 38.9204C97.3968 38.9701 97.3505 39.0143 97.3014 39.053C97.2068 38.9255 97.1171 38.8056 97.0323 38.6932C96.6525 38.1838 96.2985 37.7295 95.9703 37.3302H94.7113V37.5161C95.1001 37.9617 95.4749 38.4201 95.8354 38.8911C95.7575 38.9239 95.6805 38.9589 95.6045 38.9961C95.3748 39.1109 95.2177 39.2394 95.1333 39.3816C95.0676 39.4964 95.0114 39.6983 94.9645 39.9874C94.9176 40.272 94.8683 40.6712 94.8168 41.1852C94.8027 41.2908 94.7886 41.4285 94.7746 41.5983H95.9984C96.0265 41.043 96.0476 40.646 96.0617 40.4074C96.0805 40.1641 96.1039 39.9874 96.132 39.8773C96.1602 39.7947 96.2071 39.7327 96.2727 39.6914C96.3058 39.6698 96.3437 39.6502 96.3862 39.6327Z" fill="black"/>
<path d="M100.996 39.065H99.8075V41.5983H100.996V39.065Z" fill="black"/>
<path d="M99.6598 38.2114H102.206V41.5983H103.416V37.3302H99.6598V38.2114Z" fill="black"/>
<path d="M68.6445 39.065H69.8331V41.5983H68.6445V39.065Z" fill="black"/>
<path d="M71.0429 38.2114H68.4968V37.3302H72.2527V41.5983H71.0429V38.2114Z" fill="black"/>
<path d="M65.937 41.6189C66.1011 41.6327 66.2512 41.635 66.3871 41.6258C66.9029 41.5799 67.2781 41.3665 67.5125 40.9856C67.7516 40.6047 67.8618 40.0563 67.8431 39.3403C67.829 38.6932 67.6813 38.1907 67.4 37.8327C67.1186 37.4702 66.7341 37.2866 66.2465 37.282C66.0073 37.282 65.7799 37.3417 65.5642 37.461C65.3485 37.5757 65.168 37.7318 65.0226 37.9291C64.9978 37.964 64.9744 37.9993 64.9526 38.0349C64.9393 37.9866 64.9251 37.9399 64.9101 37.8947C64.8491 37.6928 64.7624 37.5046 64.6499 37.3302H63.3627V37.4817C63.7144 38.1242 63.8996 38.6083 63.9184 38.9342C63.9278 39.0765 63.916 39.2784 63.8832 39.54C63.8504 39.8016 63.7941 40.1871 63.7144 40.6965L63.5808 41.5983H64.8116L64.9101 40.7447C64.957 40.3546 65.0015 39.9943 65.0437 39.6639C65.0906 39.3289 65.1305 39.0879 65.1633 38.9411C65.2196 38.7024 65.3134 38.5166 65.4447 38.3835C65.5806 38.2504 65.7401 38.1838 65.9229 38.1838C66.1621 38.1838 66.3379 38.2917 66.4504 38.5074C66.563 38.7185 66.6239 39.0053 66.6333 39.3679C66.6474 39.7442 66.6075 40.0517 66.5137 40.2903C66.4247 40.5244 66.2769 40.6621 66.0706 40.7034C65.9253 40.7263 65.7377 40.7194 65.508 40.6827V41.5708C65.6346 41.5937 65.7776 41.6098 65.937 41.6189Z" fill="black"/>
<path d="M61.071 38.2114H59.4533V37.3302H62.752V38.2114H62.2808V41.5983H61.071V38.2114Z" fill="black"/>
<path d="M56.9463 38.2114H57.4949V40.1526H58.7046V37.3302H56.9463V38.2114Z" fill="black"/>
<path d="M54.2639 40.7171H55.0306V38.2114H54.3976V37.3302H56.2403V41.5983H54.2639V40.7171Z" fill="black"/>
<path d="M50.9993 39.065H49.8106V41.5983H50.9993V39.065Z" fill="black"/>
<path d="M49.6629 38.2114H52.209V41.5983H53.4188V37.3302H49.6629V38.2114Z" fill="black"/>
<path d="M103.698 30.5216L103.969 32.1932C104.078 32.8402 103.915 33.3797 103.154 33.5953C102.285 33.8647 100.981 34.0267 99.6771 34.0267C95.8186 34.0267 94.0261 32.1932 94.0261 28.5799V11.5375H91.0917C90.3849 11.5375 89.9504 10.998 89.9504 10.351V8.89437C89.9504 8.2481 90.3849 7.70859 91.0917 7.70859H94.0261V2.20738C94.0261 1.50594 94.3517 0.967138 94.9495 0.805211L97.3945 0.103768C98.2095 -0.111895 98.9162 -0.0574417 98.9162 0.912685V7.70859H102.014C102.665 7.70859 103.154 8.2481 103.154 8.89437V10.351C103.154 10.998 102.665 11.5375 102.014 11.5375H98.9162V27.771C98.9162 29.2269 99.514 29.8739 100.764 29.8739C101.198 29.8739 101.959 29.7664 102.448 29.6582C103.046 29.5508 103.589 29.8739 103.698 30.5216Z" fill="black"/>
<path d="M67.5986 32.2004V13.7908C67.5986 9.75389 65.0294 7.06214 61.0152 7.06214C58.2313 7.06214 55.9835 8.13912 53.735 10.7765L53.2002 8.35438C53.0395 7.7079 52.6647 7.38538 51.9152 7.38538H50.3096C49.6674 7.38538 49.0787 7.81589 49.0787 8.51528V32.2004C49.0787 32.8462 49.6674 33.3847 50.3096 33.3847H52.7721C53.4143 33.3847 53.9497 32.8462 53.9497 32.2004V17.6132C53.9497 14.0061 56.4649 11.2607 59.6769 11.2607C61.8714 11.2607 62.7276 12.3377 62.7276 14.8678V32.2004C62.7276 32.8462 63.3164 33.3847 63.9585 33.3847H66.4211C67.0632 33.3847 67.5986 32.8462 67.5986 32.2004Z" fill="black"/>
<path fill-rule="evenodd" clip-rule="evenodd" d="M89.3117 20.9185C89.3117 11.1672 85.1131 7.70415 79.8112 7.70415C73.985 7.70415 70.1531 12.7663 70.1531 20.7585C70.1531 29.4975 74.1949 34.0267 81.3335 34.0267C84.4304 34.0267 86.2149 33.5474 87.8424 32.8013C88.4721 32.5351 88.7343 32.0021 88.5244 31.3621L87.947 29.6575C87.7371 29.0714 87.3173 28.6452 86.5301 28.9114C85.0078 29.3913 83.5901 29.8175 81.5957 29.8175C76.9773 29.8175 75.3497 27.0468 75.1398 22.0908H88.1569C88.7873 22.0908 89.3117 21.5584 89.3117 20.9185ZM84.5527 18.4301H75.2621C75.7872 12.8886 78.2013 11.5564 80.0911 11.5564C83.3456 11.5564 84.4474 15.0201 84.5527 18.4301Z" fill="black"/>
<g clip-path="url(#clip0_25_53)">
<path d="M22.0854 0.00281944H22.7809C28.4215 0.192984 33.7686 2.5936 37.6939 6.69816C41.6192 10.8027 43.8158 16.2902 43.8202 22.0028V22.7068C43.6323 28.4163 41.2607 33.8286 37.2056 37.8018C33.1505 41.775 27.7291 43.9984 22.0854 44.0028H21.3899C15.6254 43.9095 10.1337 41.5021 6.12287 37.3103C2.11202 33.1185 -0.0894455 27.4856 0.00278545 21.6508C0.0950165 15.8161 2.47338 10.2574 6.61467 6.19757C10.756 2.13778 16.3209 -0.0905368 22.0854 0.00281944Z" fill="#DE1A1A"/>
<path d="M17.2041 8.04482C17.4693 8.04072 17.7271 8.13569 17.9313 8.31265C18.1355 8.48962 18.2726 8.73698 18.318 9.01024L21.5006 22.5262C21.7126 23.3973 21.8301 24.2907 21.8506 25.1894L22.4872 22.0934L25.4151 8.94366C25.4363 8.78754 25.4895 8.63804 25.5709 8.50531C25.6523 8.37259 25.7601 8.25975 25.8869 8.17448C26.0137 8.0892 26.1566 8.03349 26.3058 8.01111C26.4551 7.98874 26.6071 8.00024 26.7518 8.04482H29.1068C29.6479 8.04482 29.9979 8.4776 29.8388 9.1767L24.4285 31.215C24.1899 32.544 23.6645 33.7986 22.8924 34.8831C22.1203 35.9677 21.1218 36.8537 19.9729 37.4736L19.1137 37.9064C19.0078 37.9613 18.8923 37.9928 18.7743 37.9989C18.6562 38.005 18.5383 37.9856 18.4278 37.9418C18.3173 37.8981 18.2166 37.831 18.132 37.7447C18.0474 37.6584 17.9807 37.5548 17.9361 37.4403L17.1087 35.6427C17.0082 35.3942 17.0017 35.1151 17.0903 34.8618C17.1789 34.6085 17.3561 34.3998 17.586 34.2777L18.1271 33.9781C18.8158 33.5785 19.4122 33.0254 19.8741 32.3582C20.3361 31.6909 20.6523 30.9256 20.8004 30.1164C21.113 29.265 21.3474 28.3844 21.5006 27.4865H20.1321C19.5592 27.4865 19.2728 27.2534 19.0818 26.5876L14.0216 9.11012C13.9631 8.99226 13.9363 8.85999 13.9441 8.72744C13.9519 8.5949 13.9941 8.46707 14.066 8.35764C14.1379 8.2482 14.2369 8.16129 14.3524 8.10619C14.468 8.05109 14.5956 8.02987 14.7218 8.04482H17.2041Z" fill="white"/>
</g>
<defs>
<clipPath id="clip0_25_53">
<rect width="43.8202" height="44" fill="white"/>
</clipPath>
</defs>
</svg>
